<svg width="393" height="54" viewBox="0 0 393 54" fill="none" xmlns="http://www.w3.org/2000/svg">
<rect width="393" height="54" fill="black"/>
<path d="M56.7666 23.0627C57.4085 23.0627 58.0173 23.1817 58.5928 23.4197C59.1683 23.6521 59.6774 24.0173 60.1201 24.5154C60.5684 25.0079 60.9198 25.6415 61.1743 26.4163C61.4289 27.1855 61.5562 28.1124 61.5562 29.197V29.2136C61.5562 30.5583 61.3625 31.7094 60.9751 32.6667C60.5877 33.6241 60.0316 34.3601 59.3066 34.8748C58.5872 35.3839 57.7267 35.6384 56.7251 35.6384C55.9891 35.6384 55.325 35.5056 54.7329 35.24C54.1463 34.9688 53.6593 34.5981 53.272 34.1277C52.8901 33.6518 52.6328 33.1095 52.5 32.5007L52.4834 32.4094H54.5835L54.6167 32.4924C54.7218 32.7691 54.8713 33.0126 55.0649 33.2229C55.2642 33.4332 55.5021 33.5964 55.7788 33.7126C56.061 33.8233 56.3765 33.8787 56.7251 33.8787C57.356 33.8787 57.8706 33.6933 58.269 33.3225C58.673 32.9462 58.9746 32.4454 59.1738 31.8201C59.3786 31.1892 59.4948 30.4919 59.5225 29.7283C59.528 29.6453 59.5308 29.565 59.5308 29.4875C59.5308 29.4045 59.5308 29.3243 59.5308 29.2468L59.1572 27.2463C59.1572 26.7926 59.0521 26.3803 58.8418 26.0095C58.6315 25.6388 58.3465 25.3455 57.9868 25.1296C57.6326 24.9138 57.2314 24.8059 56.7832 24.8059C56.3516 24.8059 55.9559 24.9111 55.5962 25.1213C55.2365 25.3316 54.9487 25.6194 54.7329 25.9846C54.5171 26.3443 54.4092 26.7483 54.4092 27.1965V27.2131C54.4092 27.678 54.5116 28.0903 54.7163 28.45C54.9211 28.8041 55.2005 29.0836 55.5547 29.2883C55.9089 29.4931 56.3128 29.5955 56.7666 29.5955C57.2204 29.5955 57.6271 29.4958 57.9868 29.2966C58.3465 29.0974 58.6315 28.8207 58.8418 28.4666C59.0521 28.1124 59.1572 27.7112 59.1572 27.2629V27.2463H59.6553V29.4543H59.3647C59.2209 29.7698 59.0078 30.0631 58.7256 30.3342C58.4434 30.6054 58.0947 30.824 57.6797 30.99C57.2702 31.156 56.7887 31.239 56.2354 31.239C55.4717 31.239 54.7965 31.0675 54.21 30.7244C53.6234 30.3813 53.1613 29.9109 52.8237 29.3132C52.4917 28.7156 52.3257 28.0404 52.3257 27.2878V27.2712C52.3257 26.4578 52.5138 25.7356 52.8901 25.1047C53.272 24.4683 53.7977 23.9703 54.4673 23.6106C55.1424 23.2454 55.9089 23.0627 56.7666 23.0627ZM65.3247 33.7292C64.9484 33.7292 64.633 33.6047 64.3784 33.3557C64.1294 33.1012 64.0049 32.7913 64.0049 32.426C64.0049 32.0553 64.1294 31.7454 64.3784 31.4963C64.633 31.2418 64.9484 31.1145 65.3247 31.1145C65.7065 31.1145 66.022 31.2418 66.271 31.4963C66.52 31.7454 66.6445 32.0553 66.6445 32.426C66.6445 32.7913 66.52 33.1012 66.271 33.3557C66.022 33.6047 65.7065 33.7292 65.3247 33.7292ZM65.3247 27.5701C64.9484 27.5701 64.633 27.4456 64.3784 27.1965C64.1294 26.942 64.0049 26.6321 64.0049 26.2668C64.0049 25.8961 64.1294 25.5862 64.3784 25.3372C64.633 25.0826 64.9484 24.9553 65.3247 24.9553C65.7065 24.9553 66.022 25.0826 66.271 25.3372C66.52 25.5862 66.6445 25.8961 66.6445 26.2668C66.6445 26.6321 66.52 26.942 66.271 27.1965C66.022 27.4456 65.7065 27.5701 65.3247 27.5701ZM74.9038 35.3396V33.0403H69.0435V31.2888C69.3589 30.752 69.6743 30.2125 69.9897 29.6702C70.3107 29.1278 70.6344 28.5883 70.9609 28.0515C71.293 27.5092 71.6222 26.9752 71.9487 26.4495C72.2808 25.9182 72.61 25.3953 72.9365 24.8806C73.2686 24.3604 73.6006 23.8541 73.9326 23.3616H76.9458V31.2722H78.5645V33.0403H76.9458V35.3396H74.9038ZM71.0356 31.322H74.937V25.0715H74.8125C74.569 25.4478 74.3172 25.8352 74.0571 26.2336C73.8026 26.6321 73.5452 27.0388 73.2852 27.4539C73.0251 27.8689 72.7677 28.2867 72.5132 28.7073C72.2586 29.1223 72.0068 29.5401 71.7578 29.9607C71.5088 30.3757 71.2681 30.788 71.0356 31.1975V31.322ZM83.52 35.3396V25.47H83.3706L80.3906 27.5701V25.5613L83.52 23.3616H85.6533V35.3396H83.52Z" fill="white"/>
<rect opacity="0.35" x="333.5" y="23.5" width="24" height="12" rx="3.8" stroke="white"/>
<path opacity="0.4" d="M359 27.7812V31.8567C359.805 31.5116 360.328 30.7086 360.328 29.819C360.328 28.9294 359.805 28.1264 359 27.7812Z" fill="white"/>
<rect x="335" y="25" width="21" height="9" rx="2.5" fill="white"/>
<path fill-rule="evenodd" clip-rule="evenodd" d="M317.271 26.104C319.758 26.1041 322.15 27.0262 323.952 28.6796C324.088 28.8073 324.305 28.8057 324.439 28.676L325.736 27.4126C325.804 27.3468 325.841 27.2577 325.841 27.165C325.84 27.0724 325.802 26.9837 325.733 26.9187C321.002 22.544 313.538 22.544 308.807 26.9187C308.739 26.9837 308.7 27.0723 308.699 27.165C308.699 27.2577 308.736 27.3468 308.804 27.4126L310.102 28.676C310.235 28.8059 310.452 28.8075 310.588 28.6796C312.391 27.0261 314.783 26.104 317.271 26.104ZM317.267 30.3243C318.624 30.3242 319.933 30.8359 320.939 31.76C321.076 31.8912 321.29 31.8883 321.423 31.7536L322.71 30.4343C322.778 30.3651 322.815 30.2712 322.814 30.1737C322.813 30.0761 322.774 29.9831 322.705 29.9153C319.641 27.0244 314.896 27.0244 311.832 29.9153C311.763 29.9831 311.724 30.0762 311.723 30.1738C311.722 30.2714 311.76 30.3652 311.827 30.4343L313.114 31.7536C313.247 31.8883 313.461 31.8912 313.597 31.76C314.603 30.8365 315.911 30.3248 317.267 30.3243ZM319.792 33.1178C319.794 33.2232 319.756 33.3247 319.689 33.3985L317.512 35.8533C317.449 35.9254 317.362 35.966 317.271 35.966C317.18 35.966 317.093 35.9254 317.029 35.8533L314.852 33.3985C314.785 33.3247 314.748 33.2231 314.75 33.1177C314.752 33.0124 314.793 32.9126 314.863 32.842C316.253 31.5281 318.289 31.5281 319.679 32.842C319.749 32.9127 319.79 33.0125 319.792 33.1178Z" fill="white"/>
<path fill-rule="evenodd" clip-rule="evenodd" d="M301.2 24.6821C301.2 24.0491 300.722 23.5359 300.133 23.5359H299.067C298.478 23.5359 298 24.0491 298 24.6821V34.6161C298 35.2491 298.478 35.7623 299.067 35.7623H300.133C300.722 35.7623 301.2 35.2491 301.2 34.6161V24.6821ZM293.766 25.9812H294.833C295.422 25.9812 295.899 26.5067 295.899 27.1549V34.5886C295.899 35.2368 295.422 35.7623 294.833 35.7623H293.766C293.177 35.7623 292.699 35.2368 292.699 34.5886V27.1549C292.699 26.5067 293.177 25.9812 293.766 25.9812ZM289.434 28.6302H288.367C287.778 28.6302 287.301 29.1624 287.301 29.8189V34.5736C287.301 35.2301 287.778 35.7623 288.367 35.7623H289.434C290.023 35.7623 290.501 35.2301 290.501 34.5736V29.8189C290.501 29.1624 290.023 28.6302 289.434 28.6302ZM284.133 31.0755H283.067C282.478 31.0755 282 31.6001 282 32.2472V34.5906C282 35.2377 282.478 35.7623 283.067 35.7623H284.133C284.722 35.7623 285.2 35.2377 285.2 34.5906V32.2472C285.2 31.6001 284.722 31.0755 284.133 31.0755Z" fill="white"/>
</svg>
