<svg width="393" height="54" viewBox="0 0 393 54" fill="none" xmlns="http://www.w3.org/2000/svg">
<path d="M57.6904 23.0628C58.3324 23.0628 58.9411 23.1818 59.5166 23.4197C60.0921 23.6521 60.6012 24.0174 61.0439 24.5154C61.4922 25.0079 61.8436 25.6416 62.0981 26.4163C62.3527 27.1855 62.48 28.1124 62.48 29.1971V29.2137C62.48 30.5584 62.2863 31.7094 61.8989 32.6668C61.5116 33.6241 60.9554 34.3601 60.2305 34.8748C59.5111 35.3839 58.6506 35.6385 57.6489 35.6385C56.9129 35.6385 56.2489 35.5056 55.6567 35.24C55.0701 34.9689 54.5832 34.5981 54.1958 34.1277C53.814 33.6518 53.5566 33.1095 53.4238 32.5008L53.4072 32.4095H55.5073L55.5405 32.4925C55.6457 32.7692 55.7951 33.0126 55.9888 33.2229C56.188 33.4332 56.4259 33.5965 56.7026 33.7127C56.9849 33.8234 57.3003 33.8787 57.6489 33.8787C58.2798 33.8787 58.7944 33.6933 59.1929 33.3225C59.5968 32.9462 59.8984 32.4454 60.0977 31.8201C60.3024 31.1892 60.4186 30.492 60.4463 29.7283C60.4518 29.6453 60.4546 29.5651 60.4546 29.4876C60.4546 29.4046 60.4546 29.3243 60.4546 29.2469L60.0811 27.2464C60.0811 26.7926 59.9759 26.3803 59.7656 26.0096C59.5553 25.6388 59.2703 25.3455 58.9106 25.1297C58.5565 24.9138 58.1553 24.8059 57.707 24.8059C57.2754 24.8059 56.8797 24.9111 56.52 25.1214C56.1603 25.3317 55.8726 25.6194 55.6567 25.9846C55.4409 26.3444 55.333 26.7483 55.333 27.1966V27.2132C55.333 27.678 55.4354 28.0903 55.6401 28.45C55.8449 28.8041 56.1243 29.0836 56.4785 29.2884C56.8327 29.4931 57.2367 29.5955 57.6904 29.5955C58.1442 29.5955 58.5509 29.4959 58.9106 29.2967C59.2703 29.0974 59.5553 28.8207 59.7656 28.4666C59.9759 28.1124 60.0811 27.7112 60.0811 27.263V27.2464H60.5791V29.4544H60.2886C60.1447 29.7698 59.9316 30.0631 59.6494 30.3343C59.3672 30.6054 59.0186 30.824 58.6035 30.99C58.194 31.156 57.7126 31.239 57.1592 31.239C56.3955 31.239 55.7204 31.0675 55.1338 30.7244C54.5472 30.3813 54.0851 29.9109 53.7476 29.3133C53.4155 28.7156 53.2495 28.0405 53.2495 27.2879V27.2713C53.2495 26.4578 53.4377 25.7356 53.814 25.1048C54.1958 24.4684 54.7215 23.9703 55.3911 23.6106C56.0662 23.2454 56.8327 23.0628 57.6904 23.0628ZM66.2485 33.7293C65.8722 33.7293 65.5568 33.6048 65.3022 33.3557C65.0532 33.1012 64.9287 32.7913 64.9287 32.4261C64.9287 32.0553 65.0532 31.7454 65.3022 31.4964C65.5568 31.2418 65.8722 31.1145 66.2485 31.1145C66.6304 31.1145 66.9458 31.2418 67.1948 31.4964C67.4438 31.7454 67.5684 32.0553 67.5684 32.4261C67.5684 32.7913 67.4438 33.1012 67.1948 33.3557C66.9458 33.6048 66.6304 33.7293 66.2485 33.7293ZM66.2485 27.5701C65.8722 27.5701 65.5568 27.4456 65.3022 27.1966C65.0532 26.942 64.9287 26.6321 64.9287 26.2669C64.9287 25.8961 65.0532 25.5862 65.3022 25.3372C65.5568 25.0826 65.8722 24.9554 66.2485 24.9554C66.6304 24.9554 66.9458 25.0826 67.1948 25.3372C67.4438 25.5862 67.5684 25.8961 67.5684 26.2669C67.5684 26.6321 67.4438 26.942 67.1948 27.1966C66.9458 27.4456 66.6304 27.5701 66.2485 27.5701ZM75.8276 35.3396V33.0403H69.9673V31.2888C70.2827 30.7521 70.5981 30.2125 70.9136 29.6702C71.2345 29.1279 71.5583 28.5883 71.8848 28.0515C72.2168 27.5092 72.5461 26.9752 72.8726 26.4495C73.2046 25.9182 73.5339 25.3953 73.8604 24.8806C74.1924 24.3605 74.5244 23.8541 74.8564 23.3616H77.8696V31.2722H79.4883V33.0403H77.8696V35.3396H75.8276ZM71.9595 31.3221H75.8608V25.0716H75.7363C75.4928 25.4479 75.241 25.8352 74.981 26.2337C74.7264 26.6321 74.4691 27.0388 74.209 27.4539C73.9489 27.8689 73.6916 28.2867 73.437 28.7073C73.1825 29.1223 72.9307 29.5402 72.6816 29.9607C72.4326 30.3758 72.1919 30.788 71.9595 31.1975V31.3221ZM84.4438 35.3396V25.47H84.2944L81.3145 27.5701V25.5613L84.4438 23.3616H86.5771V35.3396H84.4438Z" fill="white"/>
<rect opacity="0.35" x="334" y="23.5" width="24" height="12" rx="3.8" stroke="white"/>
<path opacity="0.4" d="M359.5 27.7811V31.8566C360.305 31.5114 360.828 30.7085 360.828 29.8189C360.828 28.9293 360.305 28.1263 359.5 27.7811Z" fill="white"/>
<rect x="335.5" y="25" width="21" height="9" rx="2.5" fill="white"/>
<path fill-rule="evenodd" clip-rule="evenodd" d="M317.771 26.104C320.258 26.1041 322.65 27.0262 324.452 28.6797C324.588 28.8074 324.805 28.8058 324.939 28.6761L326.236 27.4126C326.304 27.3469 326.341 27.2578 326.341 27.1651C326.34 27.0724 326.302 26.9838 326.233 26.9188C321.502 22.5441 314.038 22.5441 309.307 26.9188C309.239 26.9837 309.2 27.0724 309.199 27.165C309.199 27.2577 309.236 27.3468 309.304 27.4126L310.602 28.6761C310.735 28.8059 310.952 28.8076 311.088 28.6797C312.891 27.0261 315.283 26.104 317.771 26.104ZM317.767 30.3243C319.124 30.3242 320.433 30.836 321.439 31.7601C321.576 31.8913 321.79 31.8884 321.923 31.7537L323.21 30.4344C323.278 30.3652 323.315 30.2713 323.314 30.1738C323.313 30.0762 323.274 29.9831 323.205 29.9153C320.141 27.0245 315.396 27.0245 312.332 29.9153C312.263 29.9831 312.224 30.0762 312.223 30.1738C312.222 30.2714 312.26 30.3653 312.327 30.4344L313.614 31.7537C313.747 31.8884 313.961 31.8913 314.097 31.7601C315.103 30.8366 316.411 30.3249 317.767 30.3243ZM320.292 33.1179C320.294 33.2232 320.256 33.3248 320.189 33.3986L318.012 35.8533C317.949 35.9255 317.862 35.9661 317.771 35.9661C317.68 35.9661 317.593 35.9255 317.529 35.8533L315.352 33.3986C315.285 33.3247 315.248 33.2231 315.25 33.1178C315.252 33.0124 315.293 32.9127 315.363 32.842C316.753 31.5282 318.789 31.5282 320.179 32.842C320.249 32.9127 320.29 33.0125 320.292 33.1179Z" fill="white"/>
<path fill-rule="evenodd" clip-rule="evenodd" d="M301.7 24.6821C301.7 24.049 301.222 23.5358 300.633 23.5358H299.567C298.978 23.5358 298.5 24.049 298.5 24.6821V34.616C298.5 35.2491 298.978 35.7622 299.567 35.7622H300.633C301.222 35.7622 301.7 35.2491 301.7 34.616V24.6821ZM294.266 25.9811H295.333C295.922 25.9811 296.399 26.5066 296.399 27.1548V34.5885C296.399 35.2367 295.922 35.7622 295.333 35.7622H294.266C293.677 35.7622 293.199 35.2367 293.199 34.5885V27.1548C293.199 26.5066 293.677 25.9811 294.266 25.9811ZM289.934 28.6302H288.867C288.278 28.6302 287.801 29.1623 287.801 29.8188V34.5736C287.801 35.23 288.278 35.7622 288.867 35.7622H289.934C290.523 35.7622 291.001 35.23 291.001 34.5736V29.8188C291.001 29.1623 290.523 28.6302 289.934 28.6302ZM284.633 31.0755H283.567C282.978 31.0755 282.5 31.6 282.5 32.2471V34.5905C282.5 35.2377 282.978 35.7622 283.567 35.7622H284.633C285.222 35.7622 285.7 35.2377 285.7 34.5905V32.2471C285.7 31.6 285.222 31.0755 284.633 31.0755Z" fill="white"/>
</svg>
